<svg width="68" height="138" viewBox="0 0 68 138" fill="none" xmlns="http://www.w3.org/2000/svg">
<g filter="url(#filter0_dd_6595_20665)">
<path d="M34.1981 27.5366C33.9981 27 33.9981 27 33.9981 26.5C33.9981 27 33.9981 27 33.7981 27.5366C33.669 27.8461 32.9 83 32.9 102.5C32.535 105.417 31.0484 107.226 30.5 107.5H36.5C35.9516 107.226 34.6637 105.417 34.3 102.5C34.3 85 34.3639 27.8424 34.1981 27.5366Z" fill="url(#paint0_radial_6595_20665)" fill-opacity="0.25"/>
</g>
<g filter="url(#filter1_dd_6595_20665)">
<path d="M34 114C34 111 35.9 105 43.5 105C40.4884 105 36.7364 102.409 34.7923 98.5C34.6309 98.1755 34.4819 27.8419 34.3469 27.5C34.2182 27.174 34.1021 26.8405 34 26.5C33.947 26.8445 33.8703 27.1778 33.7724 27.5C33.6672 27.8461 33.5375 98.1793 33.3865 98.5C31.5563 102.387 26.5877 104.425 24 105C31.2 105 33.6667 111 34 114Z" fill="url(#paint1_linear_6595_20665)"/>
</g>
<defs>
<filter id="filter0_dd_6595_20665" x="2.5" y="0.5" width="62" height="135" filterUnits="userSpaceOnUse" color-interpolation-filters="sRGB">
<feFlood flood-opacity="0" result="BackgroundImageFix"/>
<feColorMatrix in="SourceAlpha" type="matrix" values="0 0 0 0 0 0 0 0 0 0 0 0 0 0 0 0 0 0 127 0" result="hardAlpha"/>
<feMorphology radius="20" operator="dilate" in="SourceAlpha" result="effect1_dropShadow_6595_20665"/>
<feOffset dx="-2"/>
<feGaussianBlur stdDeviation="3"/>
<feComposite in2="hardAlpha" operator="out"/>
<feColorMatrix type="matrix" values="0 0 0 0 0.439216 0 0 0 0 0.345098 0 0 0 0 0.933333 0 0 0 1 0"/>
<feBlend mode="normal" in2="BackgroundImageFix" result="effect1_dropShadow_6595_20665"/>
<feColorMatrix in="SourceAlpha" type="matrix" values="0 0 0 0 0 0 0 0 0 0 0 0 0 0 0 0 0 0 127 0" result="hardAlpha"/>
<feMorphology radius="20" operator="dilate" in="SourceAlpha" result="effect2_dropShadow_6595_20665"/>
<feOffset dx="2" dy="2"/>
<feGaussianBlur stdDeviation="3"/>
<feComposite in2="hardAlpha" operator="out"/>
<feColorMatrix type="matrix" values="0 0 0 0 0.788235 0 0 0 0 0.301961 0 0 0 0 0.709804 0 0 0 1 0"/>
<feBlend mode="normal" in2="effect1_dropShadow_6595_20665" result="effect2_dropShadow_6595_20665"/>
<feBlend mode="normal" in="SourceGraphic" in2="effect2_dropShadow_6595_20665" result="shape"/>
</filter>
<filter id="filter1_dd_6595_20665" x="0" y="2.5" width="67.5" height="135.5" filterUnits="userSpaceOnUse" color-interpolation-filters="sRGB">
<feFlood flood-opacity="0" result="BackgroundImageFix"/>
<feColorMatrix in="SourceAlpha" type="matrix" values="0 0 0 0 0 0 0 0 0 0 0 0 0 0 0 0 0 0 127 0" result="hardAlpha"/>
<feMorphology radius="20" operator="dilate" in="SourceAlpha" result="effect1_dropShadow_6595_20665"/>
<feOffset/>
<feGaussianBlur stdDeviation="1"/>
<feComposite in2="hardAlpha" operator="out"/>
<feColorMatrix type="matrix" values="0 0 0 0 0.788235 0 0 0 0 0.301961 0 0 0 0 0.709804 0 0 0 0.25 0"/>
<feBlend mode="normal" in2="BackgroundImageFix" result="effect1_dropShadow_6595_20665"/>
<feColorMatrix in="SourceAlpha" type="matrix" values="0 0 0 0 0 0 0 0 0 0 0 0 0 0 0 0 0 0 127 0" result="hardAlpha"/>
<feMorphology radius="20" operator="dilate" in="SourceAlpha" result="effect2_dropShadow_6595_20665"/>
<feOffset/>
<feGaussianBlur stdDeviation="2"/>
<feComposite in2="hardAlpha" operator="out"/>
<feColorMatrix type="matrix" values="0 0 0 0 0.847059 0 0 0 0 0.647059 0 0 0 0 0.341176 0 0 0 0.5 0"/>
<feBlend mode="normal" in2="effect1_dropShadow_6595_20665" result="effect2_dropShadow_6595_20665"/>
<feBlend mode="normal" in="SourceGraphic" in2="effect2_dropShadow_6595_20665" result="shape"/>
</filter>
<radialGradient id="paint0_radial_6595_20665" cx="0" cy="0" r="1" gradientUnits="userSpaceOnUse" gradientTransform="translate(27.2375 45.0587) rotate(57.8022) scale(37.7857 32.1582)">
<stop stop-color="#397FF7"/>
<stop offset="1" stop-color="#602EEF"/>
</radialGradient>
<linearGradient id="paint1_linear_6595_20665" x1="24" y1="77.9047" x2="43.2623" y2="75.7648" gradientUnits="userSpaceOnUse">
<stop stop-color="#7058EE"/>
<stop offset="0.5" stop-color="#C94DB5"/>
<stop offset="1" stop-color="#D8A557"/>
</linearGradient>
</defs>
</svg>
